<svg width="24" height="24" viewBox="0 0 24 24" fill="none" xmlns="http://www.w3.org/2000/svg">
<g clip-path="url(#clip0_1_3)">
<path d="M12 12.4167C12.1105 12.4167 12.2165 12.3728 12.2946 12.2946C12.3727 12.2165 12.4166 12.1105 12.4166 12V7.83332C12.4166 7.72282 12.3727 7.61684 12.2946 7.5387C12.2165 7.46056 12.1105 7.41666 12 7.41666C11.8895 7.41666 11.7835 7.46056 11.7054 7.5387C11.6272 7.61684 11.5833 7.72282 11.5833 7.83332V12C11.5833 12.1105 11.6272 12.2165 11.7054 12.2946C11.7835 12.3728 11.8895 12.4167 12 12.4167Z" fill="#DEDDDA"/>
<path d="M13.9125 8.29584C13.8141 8.24501 13.6996 8.23533 13.5941 8.26893C13.4886 8.30253 13.4008 8.37666 13.35 8.47501C13.2991 8.57336 13.2895 8.68788 13.3231 8.79336C13.3567 8.89885 13.4308 8.98667 13.5291 9.03751C14.1931 9.38029 14.7226 9.9362 15.0327 10.616C15.3428 11.2958 15.4155 12.0601 15.2391 12.7862C15.0627 13.5123 14.6475 14.1581 14.0601 14.6199C13.4727 15.0817 12.7472 15.3327 12 15.3327C11.2528 15.3327 10.5272 15.0817 9.93984 14.6199C9.35243 14.1581 8.93722 13.5123 8.76084 12.7862C8.58447 12.0601 8.65717 11.2958 8.96726 10.616C9.27736 9.9362 9.80688 9.38029 10.4708 9.03751C10.5195 9.01234 10.5628 8.97782 10.5981 8.93593C10.6335 8.89404 10.6603 8.8456 10.6769 8.79336C10.6935 8.74113 10.6997 8.68613 10.6951 8.63151C10.6905 8.57689 10.6752 8.52371 10.65 8.47501C10.6248 8.42631 10.5903 8.38305 10.5484 8.34769C10.5065 8.31233 10.4581 8.28556 10.4058 8.26893C10.3536 8.25229 10.2986 8.2461 10.244 8.25072C10.1894 8.25534 10.1362 8.27067 10.0875 8.29584C9.25777 8.7245 8.59612 9.41948 8.20872 10.2692C7.82132 11.119 7.73063 12.0743 7.9512 12.9818C8.17177 13.8892 8.69081 14.6963 9.42503 15.2734C10.1593 15.8506 11.0661 16.1643 12 16.1643C12.9339 16.1643 13.8407 15.8506 14.5749 15.2734C15.3092 14.6963 15.8282 13.8892 16.0488 12.9818C16.2693 12.0743 16.1786 11.119 15.7912 10.2692C15.4038 9.41948 14.7422 8.7245 13.9125 8.29584Z" fill="#DEDDDA"/>
</g>
<path fill-rule="evenodd" clip-rule="evenodd" d="M12 5.125C10.5141 5.12557 9.06841 5.60753 7.87941 6.49868C6.69042 7.38983 5.82214 8.64221 5.40463 10.0682C4.98712 11.4943 5.04285 13.0172 5.56347 14.4089C6.0841 15.8006 7.04159 16.9861 8.29254 17.788C9.54349 18.5898 11.0206 18.9648 12.5025 18.8568C13.9845 18.7488 15.3915 18.1635 16.513 17.1887C17.6344 16.2139 18.4098 14.902 18.7231 13.4495C19.0364 11.997 18.8707 10.4821 18.2508 9.13175C18.1833 8.96757 18.1819 8.78365 18.247 8.61849C18.312 8.45333 18.4384 8.31973 18.5997 8.24565C18.761 8.17157 18.9447 8.16275 19.1124 8.22104C19.2801 8.27933 19.4187 8.40021 19.4993 8.55838C20.2431 10.1789 20.4419 11.9969 20.0658 13.7399C19.6898 15.4829 18.7591 17.0572 17.4133 18.2269C16.0674 19.3966 14.3788 20.0988 12.6004 20.2282C10.822 20.3577 9.04947 19.9075 7.5484 18.945C6.04732 17.9826 4.89848 16.5597 4.27396 14.8895C3.64944 13.2193 3.58285 11.3917 4.08417 9.68053C4.5855 7.96933 5.62774 6.46661 7.05479 5.39746C8.48184 4.32832 10.2169 3.7503 12 3.75V5.125Z" fill="#DEDDDA"/>
<path d="M12 7.14075V1.73425C12 1.66893 12.0187 1.60497 12.0537 1.54986C12.0888 1.49475 12.1388 1.45077 12.198 1.42307C12.2571 1.39537 12.3229 1.38509 12.3877 1.39345C12.4525 1.4018 12.5136 1.42844 12.5637 1.47025L15.8088 4.1735C15.9738 4.311 15.9738 4.564 15.8088 4.7015L12.5637 7.40475C12.5136 7.44655 12.4525 7.47319 12.3877 7.48154C12.3229 7.4899 12.2571 7.47962 12.198 7.45192C12.1388 7.42422 12.0888 7.38024 12.0537 7.32513C12.0187 7.27002 12 7.20606 12 7.14075Z" fill="#DEDDDA"/>
<defs>
<clipPath id="clip0_1_3">
<rect width="10" height="10" fill="white" transform="translate(7 7)"/>
</clipPath>
</defs>
</svg>
